<?xml version="1.0" standalone="no"?>
<!DOCTYPE svg PUBLIC "-//W3C//DTD SVG 20010904//EN"
 "http://www.w3.org/TR/2001/REC-SVG-20010904/DTD/svg10.dtd">
<svg version="1.0" xmlns="http://www.w3.org/2000/svg"
 width="375.000000pt" height="375.000000pt" viewBox="0 0 375.000000 375.000000"
 preserveAspectRatio="xMidYMid meet">
<metadata>
Created by potrace 1.11, written by Peter Selinger 2001-2013
</metadata>
<g transform="translate(0.000000,375.000000) scale(0.100000,-0.100000)"
fill="#000000" stroke="none">
<path d="M0 1875 l0 -1875 1875 0 1875 0 0 1875 0 1875 -1875 0 -1875 0 0
-1875z m2780 1041 c348 -123 548 -473 474 -834 -9 -44 -35 -117 -61 -171 -37
-78 -59 -108 -131 -181 -96 -96 -177 -147 -300 -188 -73 -24 -91 -26 -324 -30
l-248 -4 0 50 0 49 228 6 c167 3 243 9 287 21 273 76 458 316 459 596 0 107
-16 173 -66 279 -74 156 -224 275 -404 321 -308 79 -622 -96 -731 -407 l-28
-78 -5 -485 c-6 -471 -7 -487 -29 -555 -42 -128 -88 -203 -186 -301 -78 -78
-104 -98 -185 -137 -210 -101 -427 -103 -625 -8 -206 99 -342 263 -396 480
-29 116 -23 280 14 394 71 217 239 386 462 464 78 27 86 28 333 31 l252 4 0
-51 0 -51 -207 0 c-245 0 -310 -11 -432 -71 -201 -99 -341 -324 -341 -549 0
-155 71 -322 184 -435 329 -327 876 -194 1023 249 l27 81 6 485 c7 534 6 528
74 665 70 140 186 255 331 325 121 59 177 70 335 66 114 -3 147 -8 210 -30z
m-1210 -1356 l0 -50 -130 0 -130 0 0 50 0 50 130 0 130 0 0 -50z"/>
</g>
</svg>
