<?xml version="1.0" encoding="UTF-8"?>
<!DOCTYPE svg PUBLIC "-//W3C//DTD SVG 1.1//EN" "http://www.w3.org/Graphics/SVG/1.1/DTD/svg11.dtd">
<svg xmlns="http://www.w3.org/2000/svg" xmlns:xlink="http://www.w3.org/1999/xlink" version="1.1" width="889px" height="816px" viewBox="-0.5 -0.5 889 816" style="background-color: rgb(255, 255, 255);"><defs><clipPath id="mx-clip-167-90-120-28-0"><rect x="167" y="90" width="120" height="28"/></clipPath><clipPath id="mx-clip-137-90-20-28-0"><rect x="137" y="90" width="20" height="28"/></clipPath><clipPath id="mx-clip-167-125-120-24-0"><rect x="167" y="125" width="120" height="24"/></clipPath><clipPath id="mx-clip-397-90-120-28-0"><rect x="397" y="90" width="120" height="28"/></clipPath><clipPath id="mx-clip-367-90-20-28-0"><rect x="367" y="90" width="20" height="28"/></clipPath><clipPath id="mx-clip-397-125-120-24-0"><rect x="397" y="125" width="120" height="24"/></clipPath><clipPath id="mx-clip-397-151-120-24-0"><rect x="397" y="151" width="120" height="24"/></clipPath><clipPath id="mx-clip-637-90-120-28-0"><rect x="637" y="90" width="120" height="28"/></clipPath><clipPath id="mx-clip-607-90-20-28-0"><rect x="607" y="90" width="20" height="28"/></clipPath><clipPath id="mx-clip-637-125-120-24-0"><rect x="637" y="125" width="120" height="24"/></clipPath><clipPath id="mx-clip-637-151-120-24-0"><rect x="637" y="151" width="120" height="24"/></clipPath><clipPath id="mx-clip-188-240-94-28-0"><rect x="188" y="240" width="94" height="28"/></clipPath><clipPath id="mx-clip-132-240-46-28-0"><rect x="132" y="240" width="46" height="28"/></clipPath><clipPath id="mx-clip-188-270-94-28-0"><rect x="188" y="270" width="94" height="28"/></clipPath><clipPath id="mx-clip-132-270-46-28-0"><rect x="132" y="270" width="46" height="28"/></clipPath><clipPath id="mx-clip-188-305-94-24-0"><rect x="188" y="305" width="94" height="24"/></clipPath><clipPath id="mx-clip-663-240-94-28-0"><rect x="663" y="240" width="94" height="28"/></clipPath><clipPath id="mx-clip-607-240-46-28-0"><rect x="607" y="240" width="46" height="28"/></clipPath><clipPath id="mx-clip-663-270-94-28-0"><rect x="663" y="270" width="94" height="28"/></clipPath><clipPath id="mx-clip-607-270-46-28-0"><rect x="607" y="270" width="46" height="28"/></clipPath><clipPath id="mx-clip-47-495-242-26-0"><rect x="47" y="495" width="242" height="26"/></clipPath><clipPath id="mx-clip-47-521-242-26-0"><rect x="47" y="521" width="242" height="26"/></clipPath><clipPath id="mx-clip-47-547-242-26-0"><rect x="47" y="547" width="242" height="26"/></clipPath><clipPath id="mx-clip-350-495-220-26-0"><rect x="350" y="495" width="220" height="26"/></clipPath><clipPath id="mx-clip-350-521-220-26-0"><rect x="350" y="521" width="220" height="26"/></clipPath><clipPath id="mx-clip-350-547-220-26-0"><rect x="350" y="547" width="220" height="26"/></clipPath><clipPath id="mx-clip-350-573-220-26-0"><rect x="350" y="573" width="220" height="26"/></clipPath><clipPath id="mx-clip-350-599-220-26-0"><rect x="350" y="599" width="220" height="26"/></clipPath><clipPath id="mx-clip-637-495-204-26-0"><rect x="637" y="495" width="204" height="26"/></clipPath><clipPath id="mx-clip-637-521-204-26-0"><rect x="637" y="521" width="204" height="26"/></clipPath><clipPath id="mx-clip-637-547-204-26-0"><rect x="637" y="547" width="204" height="26"/></clipPath><clipPath id="mx-clip-637-573-204-26-0"><rect x="637" y="573" width="204" height="26"/></clipPath><clipPath id="mx-clip-47-613-242-26-0"><rect x="47" y="613" width="242" height="26"/></clipPath><clipPath id="mx-clip-47-639-242-26-0"><rect x="47" y="639" width="242" height="26"/></clipPath><clipPath id="mx-clip-47-665-242-26-0"><rect x="47" y="665" width="242" height="26"/></clipPath><clipPath id="mx-clip-636-665-205-26-0"><rect x="636" y="665" width="205" height="26"/></clipPath><clipPath id="mx-clip-636-691-205-26-0"><rect x="636" y="691" width="205" height="26"/></clipPath></defs><g><path d="M 0 23 L 0 0 L 888 0 L 888 23" fill="#f5f5f5" stroke="#666666" stroke-miterlimit="10" pointer-events="all"/><path d="M 0 23 L 0 387 L 888 387 L 888 23" fill="none" stroke="#666666" stroke-miterlimit="10" pointer-events="none"/><path d="M 0 23 L 888 23" fill="none" stroke="#666666" stroke-miterlimit="10" pointer-events="none"/><g fill="#333333" font-family="Helvetica" font-weight="bold" text-anchor="middle" font-size="12px"><text x="443.5" y="16">Database</text></g><path d="M 132 89 L 132 63 L 292 63 L 292 89" fill="#dae8fc" stroke="#6c8ebf" stroke-miterlimit="10" pointer-events="none"/><path d="M 132 89 L 132 145 L 292 145 L 292 89" fill="#ffffff" stroke="#6c8ebf" stroke-miterlimit="10" pointer-events="none"/><path d="M 132 89 L 292 89" fill="none" stroke="#6c8ebf" stroke-miterlimit="10" pointer-events="none"/><g fill="#000000" font-family="Helvetica" text-anchor="middle" font-size="14px"><text x="211.5" y="81.5">list</text></g><path d="M 132 89 M 292 89 M 292 119 L 132 119" fill="none" stroke="#000000" stroke-miterlimit="10" pointer-events="none"/><g fill="#000000" font-family="Helvetica" font-weight="bold" text-decoration="underline" clip-path="url(#mx-clip-167-90-120-28-0)" font-size="12px"><text x="168.5" y="107.5">uniqueId</text></g><path d="M 132 89 M 162 89 L 162 119 M 132 119" fill="none" stroke="#000000" stroke-miterlimit="10" pointer-events="none"/><g fill="#000000" font-family="Helvetica" clip-path="url(#mx-clip-137-90-20-28-0)" font-size="12px"><text x="138.5" y="107.5">PK</text></g><path d="M 132 119 M 292 119 M 292 145 M 132 145" fill="none" stroke="#000000" stroke-miterlimit="10" pointer-events="none"/><g fill="#000000" font-family="Helvetica" clip-path="url(#mx-clip-167-125-120-24-0)" font-size="12px"><text x="168.5" y="137.5">name</text></g><path d="M 132 119 M 162 119 L 162 145 M 132 145" fill="none" stroke="#000000" stroke-miterlimit="10" pointer-events="none"/><path d="M 362 89 L 362 63 L 522 63 L 522 89" fill="#d5e8d4" stroke="#82b366" stroke-miterlimit="10" pointer-events="none"/><path d="M 362 89 L 362 171 L 522 171 L 522 89" fill="#ffffff" stroke="#82b366" stroke-miterlimit="10" pointer-events="none"/><path d="M 362 89 L 522 89" fill="none" stroke="#82b366" stroke-miterlimit="10" pointer-events="none"/><g fill="#000000" font-family="Helvetica" text-anchor="middle" font-size="14px"><text x="441.5" y="81.5">product</text></g><path d="M 362 89 M 522 89 M 522 119 L 362 119" fill="none" stroke="#000000" stroke-miterlimit="10" pointer-events="none"/><g fill="#000000" font-family="Helvetica" font-weight="bold" text-decoration="underline" clip-path="url(#mx-clip-397-90-120-28-0)" font-size="12px"><text x="398.5" y="107.5">uniqueId</text></g><path d="M 362 89 M 392 89 L 392 119 M 362 119" fill="none" stroke="#000000" stroke-miterlimit="10" pointer-events="none"/><g fill="#000000" font-family="Helvetica" clip-path="url(#mx-clip-367-90-20-28-0)" font-size="12px"><text x="368.5" y="107.5">PK</text></g><path d="M 362 119 M 522 119 M 522 145 M 362 145" fill="none" stroke="#000000" stroke-miterlimit="10" pointer-events="none"/><g fill="#000000" font-family="Helvetica" clip-path="url(#mx-clip-397-125-120-24-0)" font-size="12px"><text x="398.5" y="137.5">name</text></g><path d="M 362 119 M 392 119 L 392 145 M 362 145" fill="none" stroke="#000000" stroke-miterlimit="10" pointer-events="none"/><path d="M 362 145 M 522 145 M 522 171 M 362 171" fill="none" stroke="#000000" stroke-miterlimit="10" pointer-events="none"/><g fill="#000000" font-family="Helvetica" clip-path="url(#mx-clip-397-151-120-24-0)" font-size="12px"><text x="398.5" y="163.5">price</text></g><path d="M 362 145 M 392 145 L 392 171 M 362 171" fill="none" stroke="#000000" stroke-miterlimit="10" pointer-events="none"/><path d="M 602 89 L 602 63 L 762 63 L 762 89" fill="#ffe6cc" stroke="#d79b00" stroke-miterlimit="10" pointer-events="none"/><path d="M 602 89 L 602 171 L 762 171 L 762 89" fill="#ffffff" stroke="#d79b00" stroke-miterlimit="10" pointer-events="none"/><path d="M 602 89 L 762 89" fill="none" stroke="#d79b00" stroke-miterlimit="10" pointer-events="none"/><g fill="#000000" font-family="Helvetica" text-anchor="middle" font-size="14px"><text x="681.5" y="81.5">tag</text></g><path d="M 602 89 M 762 89 M 762 119 L 602 119" fill="none" stroke="#000000" stroke-miterlimit="10" pointer-events="none"/><g fill="#000000" font-family="Helvetica" font-weight="bold" text-decoration="underline" clip-path="url(#mx-clip-637-90-120-28-0)" font-size="12px"><text x="638.5" y="107.5">uniqueId</text></g><path d="M 602 89 M 632 89 L 632 119 M 602 119" fill="none" stroke="#000000" stroke-miterlimit="10" pointer-events="none"/><g fill="#000000" font-family="Helvetica" clip-path="url(#mx-clip-607-90-20-28-0)" font-size="12px"><text x="608.5" y="107.5">PK</text></g><path d="M 602 119 M 762 119 M 762 145 M 602 145" fill="none" stroke="#000000" stroke-miterlimit="10" pointer-events="none"/><g fill="#000000" font-family="Helvetica" clip-path="url(#mx-clip-637-125-120-24-0)" font-size="12px"><text x="638.5" y="137.5">name</text></g><path d="M 602 119 M 632 119 L 632 145 M 602 145" fill="none" stroke="#000000" stroke-miterlimit="10" pointer-events="none"/><path d="M 602 145 M 762 145 M 762 171 M 602 171" fill="none" stroke="#000000" stroke-miterlimit="10" pointer-events="none"/><g fill="#000000" font-family="Helvetica" clip-path="url(#mx-clip-637-151-120-24-0)" font-size="12px"><text x="638.5" y="163.5">color</text></g><path d="M 602 145 M 632 145 L 632 171 M 602 171" fill="none" stroke="#000000" stroke-miterlimit="10" pointer-events="none"/><path d="M 127 239 L 127 213 L 287 213 L 287 239" fill="#fff2cc" stroke="#d6b656" stroke-miterlimit="10" pointer-events="none"/><path d="M 127 239 L 127 325 L 287 325 L 287 239" fill="#ffffff" stroke="#d6b656" stroke-miterlimit="10" pointer-events="none"/><path d="M 127 239 L 287 239" fill="none" stroke="#d6b656" stroke-miterlimit="10" pointer-events="none"/><g fill="#000000" font-family="Helvetica" text-anchor="middle" font-size="14px"><text x="206.5" y="231.5">productStatus</text></g><path d="M 127 239 M 287 239 M 287 269 M 127 269" fill="none" stroke="#000000" stroke-miterlimit="10" pointer-events="none"/><g fill="#000000" font-family="Helvetica" font-weight="bold" text-decoration="underline" clip-path="url(#mx-clip-188-240-94-28-0)" font-size="12px"><text x="189.5" y="257.5">listId</text></g><path d="M 127 239 M 183 239 L 183 269 M 127 269" fill="none" stroke="#000000" stroke-miterlimit="10" pointer-events="none"/><g fill="#000000" font-family="Helvetica" font-weight="bold" clip-path="url(#mx-clip-132-240-46-28-0)" font-size="12px"><text x="133.5" y="257.5">FK1</text></g><path d="M 127 269 M 287 269 M 287 299 L 127 299" fill="none" stroke="#000000" stroke-miterlimit="10" pointer-events="none"/><g fill="#000000" font-family="Helvetica" font-weight="bold" text-decoration="underline" clip-path="url(#mx-clip-188-270-94-28-0)" font-size="12px"><text x="189.5" y="287.5">productId</text></g><path d="M 127 269 M 183 269 L 183 299 M 127 299" fill="none" stroke="#000000" stroke-miterlimit="10" pointer-events="none"/><g fill="#000000" font-family="Helvetica" font-weight="bold" clip-path="url(#mx-clip-132-270-46-28-0)" font-size="12px"><text x="133.5" y="287.5">FK2</text></g><path d="M 127 299 M 287 299 M 287 325 M 127 325" fill="none" stroke="#000000" stroke-miterlimit="10" pointer-events="none"/><g fill="#000000" font-family="Helvetica" clip-path="url(#mx-clip-188-305-94-24-0)" font-size="12px"><text x="189.5" y="317.5">completed</text></g><path d="M 127 299 M 183 299 L 183 325 M 127 325" fill="none" stroke="#000000" stroke-miterlimit="10" pointer-events="none"/><path d="M 602 239 L 602 213 L 762 213 L 762 239" fill="#e1d5e7" stroke="#9673a6" stroke-miterlimit="10" pointer-events="none"/><path d="M 602 239 L 602 299 L 762 299 L 762 239" fill="#ffffff" stroke="#9673a6" stroke-miterlimit="10" pointer-events="none"/><path d="M 602 239 L 762 239" fill="none" stroke="#9673a6" stroke-miterlimit="10" pointer-events="none"/><g fill="#000000" font-family="Helvetica" text-anchor="middle" font-size="14px"><text x="681.5" y="231.5">productTag</text></g><path d="M 602 239 M 762 239 M 762 269 M 602 269" fill="none" stroke="#000000" stroke-miterlimit="10" pointer-events="none"/><g fill="#000000" font-family="Helvetica" font-weight="bold" text-decoration="underline" clip-path="url(#mx-clip-663-240-94-28-0)" font-size="12px"><text x="664.5" y="257.5">productId</text></g><path d="M 602 239 M 658 239 L 658 269 M 602 269" fill="none" stroke="#000000" stroke-miterlimit="10" pointer-events="none"/><g fill="#000000" font-family="Helvetica" font-weight="bold" clip-path="url(#mx-clip-607-240-46-28-0)" font-size="12px"><text x="608.5" y="257.5">FK1</text></g><path d="M 602 269 M 762 269 M 762 299 L 602 299" fill="none" stroke="#000000" stroke-miterlimit="10" pointer-events="none"/><g fill="#000000" font-family="Helvetica" font-weight="bold" text-decoration="underline" clip-path="url(#mx-clip-663-270-94-28-0)" font-size="12px"><text x="664.5" y="287.5">tagId</text></g><path d="M 602 269 M 658 269 L 658 299 M 602 299" fill="none" stroke="#000000" stroke-miterlimit="10" pointer-events="none"/><g fill="#000000" font-family="Helvetica" font-weight="bold" clip-path="url(#mx-clip-607-270-46-28-0)" font-size="12px"><text x="608.5" y="287.5">FK2</text></g><path d="M 127 254 L 117 254 Q 107 254 107 244 L 107 114 Q 107 104 116.32 104 L 125.63 104" fill="none" stroke="#000000" stroke-miterlimit="10" pointer-events="none"/><path d="M 130.88 104 L 123.88 107.5 L 125.63 104 L 123.88 100.5 Z" fill="#000000" stroke="#000000" stroke-miterlimit="10" pointer-events="none"/><path d="M 287 284 L 315 284 Q 325 284 325 274 L 325 114 Q 325 104 335 104 L 355.63 104" fill="none" stroke="#000000" stroke-miterlimit="10" pointer-events="none"/><path d="M 360.88 104 L 353.88 107.5 L 355.63 104 L 353.88 100.5 Z" fill="#000000" stroke="#000000" stroke-miterlimit="10" pointer-events="none"/><path d="M 602 254 L 572 254 Q 562 254 562 244 L 562 114 Q 562 104 552 104 L 528.37 104" fill="none" stroke="#000000" stroke-miterlimit="10" pointer-events="none"/><path d="M 523.12 104 L 530.12 100.5 L 528.37 104 L 530.12 107.5 Z" fill="#000000" stroke="#000000" stroke-miterlimit="10" pointer-events="none"/><path d="M 762 284 L 772 284 Q 782 284 782 274 L 782 114 Q 782 104 775.18 104 L 768.37 104" fill="none" stroke="#000000" stroke-miterlimit="10" pointer-events="none"/><path d="M 763.12 104 L 770.12 100.5 L 768.37 104 L 770.12 107.5 Z" fill="#000000" stroke="#000000" stroke-miterlimit="10" pointer-events="none"/><path d="M 1 434 L 1 411 L 888 411 L 888 434" fill="#f5f5f5" stroke="#666666" stroke-miterlimit="10" pointer-events="none"/><path d="M 1 434 L 1 815 L 888 815 L 888 434" fill="none" stroke="#666666" stroke-miterlimit="10" pointer-events="none"/><path d="M 1 434 L 888 434" fill="none" stroke="#666666" stroke-miterlimit="10" pointer-events="none"/><g fill="#333333" font-family="Helvetica" font-weight="bold" text-anchor="middle" font-size="12px"><text x="444" y="427">Records</text></g><path d="M 43 490 L 43 464 L 293 464 L 293 490" fill="#dae8fc" stroke="#6c8ebf" stroke-miterlimit="10" pointer-events="none"/><path d="M 43 490 L 43 568 L 293 568 L 293 490" fill="none" stroke="#6c8ebf" stroke-miterlimit="10" pointer-events="none"/><path d="M 43 490 L 293 490" fill="none" stroke="#6c8ebf" stroke-miterlimit="10" pointer-events="none"/><g fill="#000000" font-family="Helvetica" text-anchor="middle" font-size="14px"><text x="167.5" y="482.5">List : Record</text></g><rect x="43" y="490" width="250" height="26" fill="#ffffff" stroke="none" pointer-events="none"/><g fill="#000000" font-family="Helvetica" clip-path="url(#mx-clip-47-495-242-26-0)" font-size="12px"><text x="48.5" y="507.5">id: Int64?</text></g><rect x="43" y="516" width="250" height="26" fill="#ffffff" stroke="none" pointer-events="none"/><g fill="#000000" font-family="Helvetica" clip-path="url(#mx-clip-47-521-242-26-0)" font-size="12px"><text x="48.5" y="533.5">name: String</text></g><rect x="43" y="542" width="250" height="26" fill="#ffffff" stroke="none" pointer-events="none"/><g fill="#000000" font-family="Helvetica" clip-path="url(#mx-clip-47-547-242-26-0)" font-size="12px"><text x="48.5" y="559.5">productStatuses: Request&lt;ProductStatus&gt;</text></g><path d="M 346 490 L 346 464 L 574 464 L 574 490" fill="#d5e8d4" stroke="#82b366" stroke-miterlimit="10" pointer-events="none"/><path d="M 346 490 L 346 620 L 574 620 L 574 490" fill="none" stroke="#82b366" stroke-miterlimit="10" pointer-events="none"/><path d="M 346 490 L 574 490" fill="none" stroke="#82b366" stroke-miterlimit="10" pointer-events="none"/><g fill="#000000" font-family="Helvetica" text-anchor="middle" font-size="14px"><text x="459.5" y="482.5">Product : Record</text></g><rect x="346" y="490" width="228" height="26" fill="#ffffff" stroke="none" pointer-events="none"/><g fill="#000000" font-family="Helvetica" clip-path="url(#mx-clip-350-495-220-26-0)" font-size="12px"><text x="351.5" y="507.5">id: Int64?</text></g><rect x="346" y="516" width="228" height="26" fill="#ffffff" stroke="none" pointer-events="none"/><g fill="#000000" font-family="Helvetica" clip-path="url(#mx-clip-350-521-220-26-0)" font-size="12px"><text x="351.5" y="533.5">name: String</text></g><rect x="346" y="542" width="228" height="26" fill="#ffffff" stroke="none" pointer-events="none"/><g fill="#000000" font-family="Helvetica" clip-path="url(#mx-clip-350-547-220-26-0)" font-size="12px"><text x="351.5" y="559.5">price: Decimal</text></g><rect x="346" y="568" width="228" height="26" fill="#ffffff" stroke="none" pointer-events="none"/><g fill="#000000" font-family="Helvetica" clip-path="url(#mx-clip-350-573-220-26-0)" font-size="12px"><text x="351.5" y="585.5">tags: Request&lt;ProductTag&gt;</text></g><rect x="346" y="594" width="228" height="26" fill="#ffffff" stroke="none" pointer-events="none"/><g fill="#000000" font-family="Helvetica" clip-path="url(#mx-clip-350-599-220-26-0)" font-size="12px"><text x="351.5" y="611.5">lists: Request&lt;ProductStatus&gt;</text></g><path d="M 633 490 L 633 464 L 845 464 L 845 490" fill="#ffe6cc" stroke="#d79b00" stroke-miterlimit="10" pointer-events="none"/><path d="M 633 490 L 633 594 L 845 594 L 845 490" fill="none" stroke="#d79b00" stroke-miterlimit="10" pointer-events="none"/><path d="M 633 490 L 845 490" fill="none" stroke="#d79b00" stroke-miterlimit="10" pointer-events="none"/><g fill="#000000" font-family="Helvetica" text-anchor="middle" font-size="14px"><text x="738.5" y="482.5">Tag : Record</text></g><rect x="633" y="490" width="212" height="26" fill="#ffffff" stroke="none" pointer-events="none"/><g fill="#000000" font-family="Helvetica" clip-path="url(#mx-clip-637-495-204-26-0)" font-size="12px"><text x="638.5" y="507.5">id: Int64?</text></g><rect x="633" y="516" width="212" height="26" fill="#ffffff" stroke="none" pointer-events="none"/><g fill="#000000" font-family="Helvetica" clip-path="url(#mx-clip-637-521-204-26-0)" font-size="12px"><text x="638.5" y="533.5">name: String</text></g><rect x="633" y="542" width="212" height="26" fill="#ffffff" stroke="none" pointer-events="none"/><g fill="#000000" font-family="Helvetica" clip-path="url(#mx-clip-637-547-204-26-0)" font-size="12px"><text x="638.5" y="559.5">color: String</text></g><rect x="633" y="568" width="212" height="26" fill="#ffffff" stroke="none" pointer-events="none"/><g fill="#000000" font-family="Helvetica" clip-path="url(#mx-clip-637-573-204-26-0)" font-size="12px"><text x="638.5" y="585.5">products: Request&lt;ProductTag&gt;</text></g><path d="M 43 608 L 43 582 L 293 582 L 293 608" fill="#fff2cc" stroke="#d6b656" stroke-miterlimit="10" pointer-events="none"/><path d="M 43 608 L 43 686 L 293 686 L 293 608" fill="none" stroke="#d6b656" stroke-miterlimit="10" pointer-events="none"/><path d="M 43 608 L 293 608" fill="none" stroke="#d6b656" stroke-miterlimit="10" pointer-events="none"/><g fill="#000000" font-family="Helvetica" text-anchor="middle" font-size="14px"><text x="167.5" y="600.5">ProductStatus : Record</text></g><rect x="43" y="608" width="250" height="26" fill="#ffffff" stroke="none" pointer-events="none"/><g fill="#000000" font-family="Helvetica" clip-path="url(#mx-clip-47-613-242-26-0)" font-size="12px"><text x="48.5" y="625.5">listId: Int64</text></g><rect x="43" y="634" width="250" height="26" fill="#ffffff" stroke="none" pointer-events="none"/><g fill="#000000" font-family="Helvetica" clip-path="url(#mx-clip-47-639-242-26-0)" font-size="12px"><text x="48.5" y="651.5">productId: Int64</text></g><rect x="43" y="660" width="250" height="26" fill="#ffffff" stroke="none" pointer-events="none"/><g fill="#000000" font-family="Helvetica" clip-path="url(#mx-clip-47-665-242-26-0)" font-size="12px"><text x="48.5" y="677.5">complete: Bool</text></g><path d="M 632 660 L 632 634 L 845 634 L 845 660" fill="#e1d5e7" stroke="#9673a6" stroke-miterlimit="10" pointer-events="none"/><path d="M 632 660 L 632 712 L 845 712 L 845 660" fill="none" stroke="#9673a6" stroke-miterlimit="10" pointer-events="none"/><path d="M 632 660 L 845 660" fill="none" stroke="#9673a6" stroke-miterlimit="10" pointer-events="none"/><g fill="#000000" font-family="Helvetica" text-anchor="middle" font-size="14px"><text x="738" y="652.5">ProductTag : Record</text></g><rect x="632" y="660" width="213" height="26" fill="#ffffff" stroke="none" pointer-events="none"/><g fill="#000000" font-family="Helvetica" clip-path="url(#mx-clip-636-665-205-26-0)" font-size="12px"><text x="637.5" y="677.5">productId: Int64</text></g><rect x="632" y="686" width="213" height="26" fill="#ffffff" stroke="none" pointer-events="none"/><g fill="#000000" font-family="Helvetica" clip-path="url(#mx-clip-636-691-205-26-0)" font-size="12px"><text x="637.5" y="703.5">tagId: Int64</text></g><path d="M 36.63 503 L 29.82 503 Q 23 503 23 513 L 23 611 Q 23 621 33 621 L 43 621" fill="none" stroke="#000000" stroke-miterlimit="10" pointer-events="none"/><path d="M 41.88 503 L 34.88 506.5 L 36.63 503 L 34.88 499.5 Z" fill="#000000" stroke="#000000" stroke-miterlimit="10" pointer-events="none"/><path d="M 339.63 503 L 329.82 503 Q 320 503 320 513 L 320 637 Q 320 647 310 647 L 293 647" fill="none" stroke="#000000" stroke-miterlimit="10" pointer-events="none"/><path d="M 344.88 503 L 337.88 506.5 L 339.63 503 L 337.88 499.5 Z" fill="#000000" stroke="#000000" stroke-miterlimit="10" pointer-events="none"/><path d="M 632 673 L 613 673 Q 603 673 603 663 L 603 513 Q 603 503 593 503 L 580.37 503" fill="none" stroke="#000000" stroke-miterlimit="10" pointer-events="none"/><path d="M 575.12 503 L 582.12 499.5 L 580.37 503 L 582.12 506.5 Z" fill="#000000" stroke="#000000" stroke-miterlimit="10" pointer-events="none"/><path d="M 845 699 L 855 699 Q 865 699 865 689 L 865 513 Q 865 503 858.18 503 L 851.37 503" fill="none" stroke="#000000" stroke-miterlimit="10" pointer-events="none"/><path d="M 846.12 503 L 853.12 499.5 L 851.37 503 L 853.12 506.5 Z" fill="#000000" stroke="#000000" stroke-miterlimit="10" pointer-events="none"/></g></svg>
